# xmcd CD database file
#
# Track frame offsets:
#	187
#	17350
#	31342
#	62727
#	77975
#	89140
#	105417
#	128262
#	140417
#	162387
#	181795
#	199955
#
# Disc length: 2850 seconds
#
# Revision: 0
# Processed by: cddbd v1.5PL3 Copyright (c) Steve Scherf et al.
# Submitted via: CDex 1.50beta8
#
DISCID=960b200c
DTITLE=大槻ケンヂ - ONLY YOU
DYEAR=1995
DGENRE=Rock
TTITLE0=オンリー・ユー
TTITLE1=タンゴ
TTITLE2=もうがまんできない
TTITLE3=未成年
TTITLE4=ロマンチスト
TTITLE5=カレーライス
TTITLE6=とん平のヘイ・ユー・ブルース
TTITLE7=私はみまちゃん
TTITLE8=メシ喰うな
TTITLE9=屋根の上の猫
TTITLE10=BYE-BYE
TTITLE11=オンリー・ユー（アンプラグド）
EXTD=YEAR: 1995
EXTT0=
EXTT1=
EXTT2=
EXTT3=
EXTT4=
EXTT5=
EXTT6=
EXTT7=
EXTT8=
EXTT9=
EXTT10=
EXTT11=
PLAYORDER=
